<svg width="256" height="256" viewBox="0 0 256 256" fill="none" xmlns="http://www.w3.org/2000/svg">
<path d="M64.8596 114.47C85.5944 114.47 102.403 97.7569 102.403 77.1407C102.403 56.5246 85.5944 39.8119 64.8596 39.8119C44.1249 39.8119 27.316 56.5246 27.316 77.1407C27.316 97.7569 44.1249 114.47 64.8596 114.47Z" fill="url(#paint0_linear_2_13)"/>
<path d="M107.783 165.106C109.31 143.398 92.8477 124.569 71.0143 123.051C49.1809 121.533 30.2438 137.901 28.7171 159.609L26.0982 196.847C24.5714 218.556 41.0332 237.384 62.8666 238.902C84.7 240.42 103.637 224.053 105.164 202.344L107.783 165.106Z" fill="url(#paint1_linear_2_13)"/>
<path d="M186.195 114.47C206.93 114.47 223.739 97.7569 223.739 77.1407C223.739 56.5246 206.93 39.8119 186.195 39.8119C165.461 39.8119 148.652 56.5246 148.652 77.1407C148.652 97.7569 165.461 114.47 186.195 114.47Z" fill="url(#paint2_linear_2_13)"/>
<path d="M226.5 159.32C224.973 137.611 206.036 121.244 184.202 122.762C162.369 124.28 145.907 143.108 147.434 164.817L150.053 202.055C151.58 223.763 170.517 240.131 192.35 238.613C214.183 237.095 230.645 218.266 229.118 196.558L226.5 159.32Z" fill="url(#paint3_linear_2_13)"/>
<path d="M127.465 104.101C151.656 104.101 171.266 84.6025 171.266 60.5503C171.266 36.4981 151.656 17 127.465 17C103.275 17 83.6645 36.4981 83.6645 60.5503C83.6645 84.6025 103.275 104.101 127.465 104.101Z" fill="url(#paint4_linear_2_13)"/>
<path d="M173.352 153.872C173.352 129.82 153.742 110.322 129.551 110.322C105.361 110.322 85.7504 129.82 85.7504 153.872V195.349C85.7504 219.401 105.361 238.899 129.551 238.899C153.742 238.899 173.352 219.401 173.352 195.349V153.872Z" fill="url(#paint5_linear_2_13)"/>
<defs>
<linearGradient id="paint0_linear_2_13" x1="31.4815" y1="120.302" x2="134.167" y2="201.455" gradientUnits="userSpaceOnUse">
<stop stop-color="#00E5CC" stop-opacity="0.85"/>
<stop offset="1" stop-color="#00C4AE" stop-opacity="0.85"/>
</linearGradient>
<linearGradient id="paint1_linear_2_13" x1="31.4815" y1="120.302" x2="134.167" y2="201.455" gradientUnits="userSpaceOnUse">
<stop stop-color="#00E5CC" stop-opacity="0.85"/>
<stop offset="1" stop-color="#00C4AE" stop-opacity="0.85"/>
</linearGradient>
<linearGradient id="paint2_linear_2_13" x1="144.669" y1="125.51" x2="257.753" y2="191.598" gradientUnits="userSpaceOnUse">
<stop stop-color="#7B61FF" stop-opacity="0.85"/>
<stop offset="1" stop-color="#9B85FF" stop-opacity="0.85"/>
</linearGradient>
<linearGradient id="paint3_linear_2_13" x1="144.669" y1="125.51" x2="257.753" y2="191.598" gradientUnits="userSpaceOnUse">
<stop stop-color="#7B61FF" stop-opacity="0.85"/>
<stop offset="1" stop-color="#9B85FF" stop-opacity="0.85"/>
</linearGradient>
<linearGradient id="paint4_linear_2_13" x1="85.7504" y1="110.322" x2="205.409" y2="191.848" gradientUnits="userSpaceOnUse">
<stop stop-color="#00E5CC"/>
<stop offset="1" stop-color="#7B61FF"/>
</linearGradient>
<linearGradient id="paint5_linear_2_13" x1="85.7504" y1="110.322" x2="205.409" y2="191.848" gradientUnits="userSpaceOnUse">
<stop stop-color="#00E5CC"/>
<stop offset="1" stop-color="#7B61FF"/>
</linearGradient>
</defs>
</svg>
