<svg width="595" height="256" viewBox="0 0 595 256" fill="none" xmlns="http://www.w3.org/2000/svg">
<path d="M38.8596 114.47C59.5944 114.47 76.4032 97.7569 76.4032 77.1407C76.4032 56.5246 59.5944 39.8119 38.8596 39.8119C18.1249 39.8119 1.31603 56.5246 1.31603 77.1407C1.31603 97.7569 18.1249 114.47 38.8596 114.47Z" fill="url(#paint0_linear_3_17)"/>
<path d="M81.7828 165.106C83.3095 143.398 66.8477 124.569 45.0143 123.051C23.1809 121.533 4.24382 137.901 2.71708 159.609L0.0981704 196.847C-1.42857 218.556 15.0332 237.384 36.8666 238.902C58.7 240.42 77.6371 224.053 79.1638 202.344L81.7828 165.106Z" fill="url(#paint1_linear_3_17)"/>
<path d="M160.195 114.47C180.93 114.47 197.739 97.7569 197.739 77.1407C197.739 56.5246 180.93 39.8119 160.195 39.8119C139.461 39.8119 122.652 56.5246 122.652 77.1407C122.652 97.7569 139.461 114.47 160.195 114.47Z" fill="url(#paint2_linear_3_17)"/>
<path d="M200.5 159.32C198.973 137.611 180.036 121.244 158.202 122.762C136.369 124.28 119.907 143.108 121.434 164.817L124.053 202.055C125.58 223.763 144.517 240.131 166.35 238.613C188.183 237.095 204.645 218.266 203.119 196.558L200.5 159.32Z" fill="url(#paint3_linear_3_17)"/>
<path d="M101.465 104.101C125.656 104.101 145.266 84.6025 145.266 60.5503C145.266 36.4982 125.656 17 101.465 17C77.2749 17 57.6646 36.4982 57.6646 60.5503C57.6646 84.6025 77.2749 104.101 101.465 104.101Z" fill="url(#paint4_linear_3_17)"/>
<path d="M147.352 153.872C147.352 129.82 127.742 110.322 103.551 110.322C79.3607 110.322 59.7504 129.82 59.7504 153.872V195.349C59.7504 219.401 79.3607 238.899 103.551 238.899C127.742 238.899 147.352 219.401 147.352 195.349V153.872Z" fill="url(#paint5_linear_3_17)"/>
<path d="M230 118.804V21.5662H264.767C271.289 21.5662 277.018 22.7844 281.953 25.2208C286.888 27.6572 290.722 31.1377 293.454 35.6624C296.274 40.1871 297.684 45.4949 297.684 51.5858C297.684 58.4599 295.922 64.2898 292.396 69.0755C288.871 73.8613 284.112 77.2983 278.119 79.3866L300.989 118.804H285.919L261.859 76.6457L270.452 81.6054H242.955V118.804H230ZM242.955 69.8586H265.164C269.042 69.8586 272.435 69.119 275.343 67.6398C278.251 66.1606 280.499 64.0287 282.085 61.2443C283.76 58.4599 284.597 55.2404 284.597 51.5858C284.597 47.8443 283.76 44.6248 282.085 41.9274C280.499 39.1429 278.251 37.0111 275.343 35.5319C272.435 34.0527 269.042 33.313 265.164 33.313H242.955V69.8586Z" fill="#F0F2F5"/>
<path d="M302.501 118.804V21.5662H366.616V33.313H315.456V64.1158H363.972V75.8626H315.456V107.057H366.616V118.804H302.501Z" fill="#F0F2F5"/>
<path d="M386.636 118.804V33.313H359.933V21.5662H426.031V33.313H399.724V118.804H386.636Z" fill="#F0F2F5"/>
<path d="M425.298 118.804V21.5662H460.066C466.588 21.5662 472.316 22.7844 477.251 25.2208C482.187 27.6572 486.02 31.1377 488.752 35.6624C491.573 40.1871 492.983 45.4949 492.983 51.5858C492.983 58.4599 491.22 64.2898 487.695 69.0755C484.17 73.8613 479.411 77.2983 473.418 79.3866L496.288 118.804H481.217L457.158 76.6457L465.75 81.6054H438.254V118.804H425.298ZM438.254 69.8586H460.463C464.34 69.8586 467.733 69.119 470.642 67.6398C473.55 66.1606 475.797 64.0287 477.384 61.2443C479.058 58.4599 479.895 55.2404 479.895 51.5858C479.895 47.8443 479.058 44.6248 477.384 41.9274C475.797 39.1429 473.55 37.0111 470.642 35.5319C467.733 34.0527 464.34 33.313 460.463 33.313H438.254V69.8586Z" fill="#F0F2F5"/>
<path d="M544.861 120.37C537.899 120.37 531.377 119.152 525.296 116.715C519.215 114.192 513.883 110.668 509.301 106.143C504.806 101.619 501.281 96.3107 498.725 90.2198C496.169 84.0418 494.891 77.3418 494.891 70.1197C494.891 62.8106 496.169 56.1105 498.725 50.0196C501.281 43.9287 504.806 38.6209 509.301 34.0962C513.883 29.5715 519.171 26.0909 525.164 23.6546C531.245 21.2182 537.811 20 544.861 20C551.912 20 558.433 21.2617 564.426 23.7851C570.507 26.2215 575.795 29.702 580.29 34.2267C584.872 38.6644 588.442 43.9287 590.998 50.0196C593.641 56.1105 594.963 62.8106 594.963 70.1197C594.963 77.3418 593.641 84.0418 590.998 90.2198C588.442 96.3107 584.872 101.619 580.29 106.143C575.795 110.668 570.507 114.192 564.426 116.715C558.433 119.152 551.912 120.37 544.861 120.37ZM544.861 108.493C550.325 108.493 555.305 107.535 559.799 105.621C564.294 103.62 568.172 100.879 571.433 97.3984C574.782 93.8308 577.337 89.7412 579.1 85.1295C580.951 80.4308 581.876 75.4275 581.876 70.1197C581.876 64.8119 580.951 59.8521 579.1 55.2404C577.337 50.6287 574.782 46.5826 571.433 43.102C568.172 39.5345 564.294 36.7936 559.799 34.8793C555.305 32.878 550.325 31.8773 544.861 31.8773C539.485 31.8773 534.55 32.878 530.055 34.8793C525.561 36.7936 521.639 39.5345 518.29 43.102C515.029 46.5826 512.473 50.6287 510.623 55.2404C508.772 59.8521 507.846 64.8119 507.846 70.1197C507.846 75.4275 508.772 80.4308 510.623 85.1295C512.473 89.7412 515.029 93.8308 518.29 97.3984C521.639 100.879 525.561 103.62 530.055 105.621C534.55 107.535 539.485 108.493 544.861 108.493Z" fill="#F0F2F5"/>
<path d="M230 234.615V137.378H261.347C271.753 137.378 280.783 139.466 288.436 143.643C296.09 147.819 302.024 153.562 306.238 160.871C310.452 168.18 312.559 176.534 312.559 185.931C312.559 195.329 310.452 203.725 306.238 211.121C302.024 218.431 296.09 224.173 288.436 228.35C280.783 232.527 271.753 234.615 261.347 234.615H230ZM249.995 216.995H261.863C268.141 216.995 273.559 215.733 278.117 213.21C282.675 210.599 286.2 206.988 288.694 202.377C291.274 197.678 292.564 192.196 292.564 185.931C292.564 179.579 291.274 174.097 288.694 169.486C286.2 164.874 282.675 161.306 278.117 158.783C273.559 156.26 268.141 154.998 261.863 154.998H249.995V216.995Z" fill="url(#paint6_linear_3_17)"/>
<path d="M319.523 234.615L352.031 137.378H378.605L411.112 234.615H389.312L382.862 214.776H347.645L341.195 234.615H319.523ZM353.192 197.156H377.315L362.609 151.213H368.027L353.192 197.156Z" fill="url(#paint7_linear_3_17)"/>
<path d="M459.959 236.181C453.939 236.181 448.263 235.094 442.931 232.918C437.685 230.656 433.127 227.48 429.257 223.39C425.473 219.301 422.635 214.471 420.743 208.903L437.126 201.463C439.534 206.771 442.845 210.947 447.059 213.993C451.359 217.038 456.089 218.561 461.249 218.561C464.001 218.561 466.365 218.126 468.343 217.256C470.321 216.386 471.869 215.211 472.987 213.732C474.105 212.166 474.664 210.338 474.664 208.25C474.664 205.988 473.976 204.073 472.6 202.507C471.224 200.854 469.074 199.549 466.15 198.592L447.317 192.327C439.663 189.803 433.901 186.236 430.031 181.624C426.161 176.925 424.226 171.313 424.226 164.787C424.226 159.044 425.602 153.997 428.354 149.647C431.192 145.296 435.105 141.902 440.093 139.466C445.167 137.03 450.972 135.811 457.508 135.811C463.27 135.811 468.601 136.812 473.503 138.813C478.405 140.815 482.619 143.643 486.145 147.297C489.757 150.952 492.466 155.346 494.272 160.48L478.018 167.919C476.212 163.395 473.503 159.871 469.891 157.347C466.279 154.737 462.152 153.432 457.508 153.432C454.842 153.432 452.477 153.867 450.413 154.737C448.349 155.607 446.758 156.869 445.64 158.522C444.522 160.088 443.963 161.915 443.963 164.004C443.963 166.266 444.694 168.267 446.156 170.008C447.618 171.661 449.811 172.966 452.735 173.923L471.181 179.927C478.921 182.451 484.683 185.975 488.467 190.499C492.337 195.024 494.272 200.549 494.272 207.075C494.272 212.731 492.81 217.778 489.886 222.216C486.962 226.566 482.92 230.003 477.76 232.527C472.686 234.963 466.752 236.181 459.959 236.181Z" fill="url(#paint8_linear_3_17)"/>
<path d="M513.682 234.615V137.378H533.676V179.405H571.086V137.378H591.081V234.615H571.086V197.025H533.676V234.615H513.682Z" fill="url(#paint9_linear_3_17)"/>
<defs>
<linearGradient id="paint0_linear_3_17" x1="5.4815" y1="120.302" x2="108.167" y2="201.455" gradientUnits="userSpaceOnUse">
<stop stop-color="#00E5CC" stop-opacity="0.85"/>
<stop offset="1" stop-color="#00C4AE" stop-opacity="0.85"/>
</linearGradient>
<linearGradient id="paint1_linear_3_17" x1="5.4815" y1="120.302" x2="108.167" y2="201.455" gradientUnits="userSpaceOnUse">
<stop stop-color="#00E5CC" stop-opacity="0.85"/>
<stop offset="1" stop-color="#00C4AE" stop-opacity="0.85"/>
</linearGradient>
<linearGradient id="paint2_linear_3_17" x1="118.669" y1="125.51" x2="231.753" y2="191.598" gradientUnits="userSpaceOnUse">
<stop stop-color="#7B61FF" stop-opacity="0.85"/>
<stop offset="1" stop-color="#9B85FF" stop-opacity="0.85"/>
</linearGradient>
<linearGradient id="paint3_linear_3_17" x1="118.669" y1="125.51" x2="231.753" y2="191.598" gradientUnits="userSpaceOnUse">
<stop stop-color="#7B61FF" stop-opacity="0.85"/>
<stop offset="1" stop-color="#9B85FF" stop-opacity="0.85"/>
</linearGradient>
<linearGradient id="paint4_linear_3_17" x1="59.7504" y1="110.322" x2="179.409" y2="191.848" gradientUnits="userSpaceOnUse">
<stop stop-color="#00E5CC"/>
<stop offset="1" stop-color="#7B61FF"/>
</linearGradient>
<linearGradient id="paint5_linear_3_17" x1="59.7504" y1="110.322" x2="179.409" y2="191.848" gradientUnits="userSpaceOnUse">
<stop stop-color="#00E5CC"/>
<stop offset="1" stop-color="#7B61FF"/>
</linearGradient>
<linearGradient id="paint6_linear_3_17" x1="230" y1="185.996" x2="591.081" y2="185.996" gradientUnits="userSpaceOnUse">
<stop stop-color="#00E5D3"/>
<stop offset="0.25" stop-color="#00BFDE"/>
<stop offset="0.5" stop-color="#1C99E8"/>
<stop offset="0.75" stop-color="#5E70F1"/>
<stop offset="1" stop-color="#832FFB"/>
</linearGradient>
<linearGradient id="paint7_linear_3_17" x1="230" y1="185.996" x2="591.081" y2="185.996" gradientUnits="userSpaceOnUse">
<stop stop-color="#00E5D3"/>
<stop offset="0.25" stop-color="#00BFDE"/>
<stop offset="0.5" stop-color="#1C99E8"/>
<stop offset="0.75" stop-color="#5E70F1"/>
<stop offset="1" stop-color="#832FFB"/>
</linearGradient>
<linearGradient id="paint8_linear_3_17" x1="230" y1="185.996" x2="591.081" y2="185.996" gradientUnits="userSpaceOnUse">
<stop stop-color="#00E5D3"/>
<stop offset="0.25" stop-color="#00BFDE"/>
<stop offset="0.5" stop-color="#1C99E8"/>
<stop offset="0.75" stop-color="#5E70F1"/>
<stop offset="1" stop-color="#832FFB"/>
</linearGradient>
<linearGradient id="paint9_linear_3_17" x1="230" y1="185.996" x2="591.081" y2="185.996" gradientUnits="userSpaceOnUse">
<stop stop-color="#00E5D3"/>
<stop offset="0.25" stop-color="#00BFDE"/>
<stop offset="0.5" stop-color="#1C99E8"/>
<stop offset="0.75" stop-color="#5E70F1"/>
<stop offset="1" stop-color="#832FFB"/>
</linearGradient>
</defs>
</svg>
